<?xml version="1.0" encoding="UTF-8" standalone="no"?>
<svg width="40px" height="35px" viewBox="0 0 40 35" version="1.1" xmlns="http://www.w3.org/2000/svg" xmlns:xlink="http://www.w3.org/1999/xlink" xmlns:sketch="http://www.bohemiancoding.com/sketch/ns">
    <!-- Generator: bin/sketchtool 1.4 (305) - http://www.bohemiancoding.com/sketch -->
    <title>business</title>
    <desc>Created with bin/sketchtool.</desc>
    <defs></defs>
    <g id="Golovna" stroke="none" stroke-width="1" fill="none" fill-rule="evenodd" sketch:type="MSPage">
        <g id="menu" sketch:type="MSArtboardGroup" transform="translate(-1128.000000, -72.000000)">
            <rect id="Rectangle-82" fill="#000000" sketch:type="MSShapeGroup" x="0" y="0" width="1280" height="382"></rect>
            <g id="menu_open" sketch:type="MSLayerGroup" transform="translate(0.000000, -1.000000)">
                <path d="M0,51 L146.648438,51 L146.648438,0.39453125 L267.332031,0.39453125 L267.332031,51 L1280,51 L1280,378 L0,378 L0,51 Z" id="Rectangle-61" fill="#FFFFFF" sketch:type="MSShapeGroup"></path>
                <g id="business" transform="translate(1128.000000, 73.000000)" fill="#000000" sketch:type="MSShapeGroup">
                    <path d="M38.3919598,16.6496482 C38.3919598,16.9792965 38.1925628,17.2607035 37.9079397,17.3853266 L37.8910553,17.3925628 C37.7969849,17.4311558 37.6964824,17.4536683 37.5879397,17.4536683 L2.4120603,17.4536683 C2.30351759,17.4536683 2.20140704,17.4311558 2.10894472,17.3925628 L2.09125628,17.3853266 C1.80743719,17.2615075 1.6080402,16.9801005 1.6080402,16.6496482 L1.6080402,6.80040201 C1.6080402,6.35819095 1.96743719,5.99638191 2.4120603,5.99638191 L37.5879397,5.99638191 C38.0325628,5.99638191 38.3919598,6.35819095 38.3919598,6.80040201 L38.3919598,16.6496482 L38.3919598,16.6496482 Z M37.3869347,32.5290452 C37.3869347,32.9728643 37.0275377,33.3330653 36.5829146,33.3330653 L3.41708543,33.3330653 C2.97246231,33.3330653 2.61306533,32.9728643 2.61306533,32.5290452 L2.61306533,19.0617085 L16.0048241,19.0617085 L16.0048241,20.3433166 L16.5338693,20.3433166 L16.5338693,23.6848241 C16.5338693,24.5740704 17.2534673,25.2928643 18.1419095,25.2928643 L21.76,25.2928643 C22.6476382,25.2928643 23.3680402,24.5740704 23.3680402,23.6848241 L23.3680402,20.3433166 L23.9951759,20.3433166 L23.9951759,19.0617085 L37.3869347,19.0617085 L37.3869347,32.5290452 L37.3869347,32.5290452 Z M15.879397,2.81407035 C15.879397,2.59296482 16.0594975,2.4120603 16.281407,2.4120603 L23.718593,2.4120603 C23.9396985,2.4120603 24.120603,2.59296482 24.120603,2.81407035 L24.120603,4.38834171 L15.879397,4.38834171 L15.879397,2.81407035 L15.879397,2.81407035 Z M37.5879397,4.38834171 L26.5326633,4.38834171 L26.5326633,2.81407035 C26.5326633,1.26311558 25.2703518,0 23.718593,0 L16.281407,0 C14.7296482,0 13.4673367,1.26311558 13.4673367,2.81407035 L13.4673367,4.38834171 L2.4120603,4.38834171 C1.08221106,4.38834171 0,5.47135678 0,6.80040201 L0,16.6496482 C0,17.4536683 0.39879397,18.1620101 1.00502513,18.600201 L1.00502513,32.5290452 C1.00502513,33.8596985 2.08723618,34.9411055 3.41708543,34.9411055 L36.5829146,34.9411055 C37.9127638,34.9411055 38.9949749,33.8596985 38.9949749,32.5290452 L38.9949749,18.600201 C39.601206,18.1620101 40,17.4536683 40,16.6496482 L40,6.80040201 C40,5.47135678 38.9177889,4.38834171 37.5879397,4.38834171 L37.5879397,4.38834171 Z"></path>
                </g>
            </g>
        </g>
    </g>
</svg>