<?xml version="1.0" encoding="UTF-8" standalone="no"?>
<svg width="35px" height="35px" viewBox="0 0 35 35" version="1.1" xmlns="http://www.w3.org/2000/svg" xmlns:xlink="http://www.w3.org/1999/xlink" xmlns:sketch="http://www.bohemiancoding.com/sketch/ns">
    <!-- Generator: bin/sketchtool 1.4 (305) - http://www.bohemiancoding.com/sketch -->
    <title>calendar events</title>
    <desc>Created with bin/sketchtool.</desc>
    <defs></defs>
    <g id="Golovna" stroke="none" stroke-width="1" fill="none" fill-rule="evenodd" sketch:type="MSPage">
        <g id="menu" sketch:type="MSArtboardGroup" transform="translate(-853.000000, -72.000000)">
            <rect id="Rectangle-82" fill="#000000" sketch:type="MSShapeGroup" x="0" y="0" width="1280" height="382"></rect>
            <g id="menu_open" sketch:type="MSLayerGroup" transform="translate(0.000000, -1.000000)">
                <path d="M0,51 L146.648438,51 L146.648438,0.39453125 L267.332031,0.39453125 L267.332031,51 L1280,51 L1280,378 L0,378 L0,51 Z" id="Rectangle-61" fill="#FFFFFF" sketch:type="MSShapeGroup"></path>
                <g id="calendar-events" transform="translate(853.000000, 73.000000)" fill="#000000" sketch:type="MSShapeGroup">
                    <path d="M31.5,35 L3.5,35 C1.57033333,35 0,33.4296667 0,31.5 L0,5.83333333 C0,3.90366667 1.309,2.33333333 2.91666667,2.33333333 L4.66666667,2.33333333 L4.66666667,4.66666667 L2.91666667,4.66666667 C2.716,4.66666667 2.33333333,5.12166667 2.33333333,5.83333333 L2.33333333,31.5 C2.33333333,32.1428333 2.85716667,32.6666667 3.5,32.6666667 L31.5,32.6666667 C32.1428333,32.6666667 32.6666667,32.1428333 32.6666667,31.5 L32.6666667,5.83333333 C32.6666667,5.12166667 32.284,4.66666667 32.0833333,4.66666667 L30.3333333,4.66666667 L30.3333333,2.33333333 L32.0833333,2.33333333 C33.691,2.33333333 35,3.90366667 35,5.83333333 L35,31.5 C35,33.4296667 33.4296667,35 31.5,35" id="Fill-133"></path>
                    <path d="M8.16666667,7 C7.52266667,7 7,6.47733333 7,5.83333333 L7,1.16666667 C7,0.522666667 7.52266667,0 8.16666667,0 C8.81066667,0 9.33333333,0.522666667 9.33333333,1.16666667 L9.33333333,5.83333333 C9.33333333,6.47733333 8.81066667,7 8.16666667,7" id="Fill-134"></path>
                    <path d="M26.8333333,7 C26.1893333,7 25.6666667,6.47733333 25.6666667,5.83333333 L25.6666667,1.16666667 C25.6666667,0.522666667 26.1893333,0 26.8333333,0 C27.4773333,0 28,0.522666667 28,1.16666667 L28,5.83333333 C28,6.47733333 27.4773333,7 26.8333333,7" id="Fill-135"></path>
                    <path d="M11.6666667,2.33333333 L23.3333333,2.33333333 L23.3333333,4.66666667 L11.6666667,4.66666667 L11.6666667,2.33333333 Z" id="Fill-136"></path>
                    <path d="M2.33333333,9.33333333 L32.6666667,9.33333333 L32.6666667,11.6666667 L2.33333333,11.6666667 L2.33333333,9.33333333 Z" id="Fill-137"></path>
                    <path d="M28,14 L30.3333333,14 L30.3333333,16.3333333 L28,16.3333333 L28,14 Z" id="Fill-138"></path>
                    <path d="M23.3333333,14 L25.6666667,14 L25.6666667,16.3333333 L23.3333333,16.3333333 L23.3333333,14 Z" id="Fill-139"></path>
                    <path d="M18.6666667,14 L21,14 L21,16.3333333 L18.6666667,16.3333333 L18.6666667,14 Z" id="Fill-140"></path>
                    <path d="M14,14 L16.3333333,14 L16.3333333,16.3333333 L14,16.3333333 L14,14 Z" id="Fill-141"></path>
                    <path d="M9.33333333,14 L11.6666667,14 L11.6666667,16.3333333 L9.33333333,16.3333333 L9.33333333,14 Z" id="Fill-142"></path>
                    <path d="M28,18.6666667 L30.3333333,18.6666667 L30.3333333,21 L28,21 L28,18.6666667 Z" id="Fill-143"></path>
                    <path d="M23.3333333,18.6666667 L25.6666667,18.6666667 L25.6666667,21 L23.3333333,21 L23.3333333,18.6666667 Z" id="Fill-144"></path>
                    <path d="M18.6666667,18.6666667 L21,18.6666667 L21,21 L18.6666667,21 L18.6666667,18.6666667 Z" id="Fill-145"></path>
                    <path d="M14,18.6666667 L16.3333333,18.6666667 L16.3333333,21 L14,21 L14,18.6666667 Z" id="Fill-146"></path>
                    <path d="M9.33333333,18.6666667 L11.6666667,18.6666667 L11.6666667,21 L9.33333333,21 L9.33333333,18.6666667 Z" id="Fill-147"></path>
                    <path d="M4.66666667,18.6666667 L7,18.6666667 L7,21 L4.66666667,21 L4.66666667,18.6666667 Z" id="Fill-148"></path>
                    <path d="M28,23.3333333 L30.3333333,23.3333333 L30.3333333,25.6666667 L28,25.6666667 L28,23.3333333 Z" id="Fill-149"></path>
                    <path d="M23.3333333,23.3333333 L25.6666667,23.3333333 L25.6666667,25.6666667 L23.3333333,25.6666667 L23.3333333,23.3333333 Z" id="Fill-150"></path>
                    <path d="M18.6666667,23.3333333 L21,23.3333333 L21,25.6666667 L18.6666667,25.6666667 L18.6666667,23.3333333 Z" id="Fill-151"></path>
                    <path d="M14,23.3333333 L16.3333333,23.3333333 L16.3333333,25.6666667 L14,25.6666667 L14,23.3333333 Z" id="Fill-152"></path>
                    <path d="M9.33333333,23.3333333 L11.6666667,23.3333333 L11.6666667,25.6666667 L9.33333333,25.6666667 L9.33333333,23.3333333 Z" id="Fill-153"></path>
                    <path d="M4.66666667,23.3333333 L7,23.3333333 L7,25.6666667 L4.66666667,25.6666667 L4.66666667,23.3333333 Z" id="Fill-154"></path>
                    <path d="M23.3333333,28 L25.6666667,28 L25.6666667,30.3333333 L23.3333333,30.3333333 L23.3333333,28 Z" id="Fill-155"></path>
                    <path d="M18.6666667,28 L21,28 L21,30.3333333 L18.6666667,30.3333333 L18.6666667,28 Z" id="Fill-156"></path>
                    <path d="M14,28 L16.3333333,28 L16.3333333,30.3333333 L14,30.3333333 L14,28 Z" id="Fill-157"></path>
                    <path d="M9.33333333,28 L11.6666667,28 L11.6666667,30.3333333 L9.33333333,30.3333333 L9.33333333,28 Z" id="Fill-158"></path>
                    <path d="M4.66666667,28 L7,28 L7,30.3333333 L4.66666667,30.3333333 L4.66666667,28 Z" id="Fill-159"></path>
                </g>
            </g>
        </g>
    </g>
</svg>