<?xml version="1.0" encoding="UTF-8" standalone="no"?>
<svg width="31px" height="21px" viewBox="0 0 31 21" version="1.1" xmlns="http://www.w3.org/2000/svg" xmlns:xlink="http://www.w3.org/1999/xlink" xmlns:sketch="http://www.bohemiancoding.com/sketch/ns">
    <!-- Generator: bin/sketchtool 1.4 (305) - http://www.bohemiancoding.com/sketch -->
    <title>Cloud 2</title>
    <desc>Created with bin/sketchtool.</desc>
    <defs></defs>
    <g id="Golovna" stroke="none" stroke-width="1" fill="none" fill-rule="evenodd" sketch:type="MSPage">
        <g id="Desktop-1280" sketch:type="MSArtboardGroup" transform="translate(-658.000000, -13.000000)" fill="#FFFFFF">
            <g id="heder" sketch:type="MSLayerGroup" transform="translate(-61.000000, -1.000000)">
                <g id="menu" transform="translate(61.000000, 1.000000)" sketch:type="MSShapeGroup">
                    <g id="Cloud-2" transform="translate(658.000000, 13.000000)">
                        <path d="M21.3667027,20.0977027 L8.7167027,20.0977027 C4.4357027,20.0977027 0.952702703,16.6137027 0.952702703,12.3297027 C0.952702703,8.0457027 4.4347027,4.5617027 8.7167027,4.5617027 C10.2497027,4.5617027 11.7247027,5.0227027 13.0137027,5.8957027 C14.6917027,2.8727027 17.9027027,0.952702703 21.3677027,0.952702703 C26.6467027,0.952702703 30.9437027,5.2457027 30.9437027,10.5227027 C30.9427027,15.8037027 26.6457027,20.0977027 21.3667027,20.0977027 L21.3667027,20.0977027 Z M8.7167027,5.6387027 C5.0287027,5.6387027 2.0287027,8.6407027 2.0287027,12.3297027 C2.0287027,16.0207027 5.0287027,19.0207027 8.7167027,19.0207027 L21.3667027,19.0207027 C26.0547027,19.0207027 29.8667027,15.2087027 29.8667027,10.5227027 C29.8667027,5.8367027 26.0547027,2.0267027 21.3667027,2.0267027 C18.1007027,2.0267027 15.0877027,3.9527027 13.6927027,6.9347027 C13.6227027,7.0827027 13.4897027,7.1907027 13.3277027,7.2297027 C13.1677027,7.2747027 12.9997027,7.2317027 12.8687027,7.1257027 C11.6517027,6.1547027 10.2147027,5.6387027 8.7167027,5.6387027 L8.7167027,5.6387027 Z"></path>
                    </g>
                </g>
            </g>
        </g>
    </g>
</svg>