<?xml version="1.0" encoding="UTF-8" standalone="no"?>
<svg width="40px" height="38px" viewBox="0 0 40 38" version="1.1" xmlns="http://www.w3.org/2000/svg" xmlns:xlink="http://www.w3.org/1999/xlink" xmlns:sketch="http://www.bohemiancoding.com/sketch/ns">
    <!-- Generator: bin/sketchtool 1.4 (305) - http://www.bohemiancoding.com/sketch -->
    <title>excursions</title>
    <desc>Created with bin/sketchtool.</desc>
    <defs></defs>
    <g id="Golovna" stroke="none" stroke-width="1" fill="none" fill-rule="evenodd" sketch:type="MSPage">
        <g id="menu" sketch:type="MSArtboardGroup" transform="translate(-718.000000, -72.000000)">
            <rect id="Rectangle-82" fill="#000000" sketch:type="MSShapeGroup" x="0" y="0" width="1280" height="382"></rect>
            <g id="menu_open" sketch:type="MSLayerGroup" transform="translate(0.000000, -1.000000)">
                <path d="M0,51 L146.648438,51 L146.648438,0.39453125 L267.332031,0.39453125 L267.332031,51 L1280,51 L1280,378 L0,378 L0,51 Z" id="Rectangle-61" fill="#FFFFFF" sketch:type="MSShapeGroup"></path>
                <g id="excursions" transform="translate(718.000000, 73.000000)" fill="#000000" sketch:type="MSShapeGroup">
                    <path d="M8.23529412,37.5529412 L6.10705882,37.5529412 L7.36,35.8329412 C8.30823529,34.5329412 8.92823529,32.8752941 9.24588235,30.7823529 C3.33529412,28.14 0.0941176471,23.0882353 0.0941176471,16.4705882 C0.0941176471,6.36941176 7.72235294,0.0941176471 20,0.0941176471 C32.2776471,0.0941176471 39.9058824,6.36941176 39.9058824,16.4705882 C39.9058824,26.7247059 32.4647059,32.8470588 20,32.8470588 C19.7223529,32.8470588 19.4482353,32.84 19.1752941,32.8294118 C17.3058824,35.0823529 13.9517647,37.5529412 8.23529412,37.5529412 L8.23529412,37.5529412 Z M20,2.25882353 C8.89176471,2.25882353 2.25882353,7.57176471 2.25882353,16.4705882 C2.25882353,24.1047059 6.91764706,27.5517647 10.8258824,29.0988235 L11.5941176,29.4035294 L11.5023529,30.2258824 C11.2858824,32.1764706 10.8529412,33.8447059 10.1870588,35.2705882 C14.1835294,34.7729412 16.5129412,32.78 17.8058824,31.0729412 L18.1470588,30.6223529 L18.8729412,30.6517647 C19.2458824,30.6670588 19.62,30.6823529 20,30.6823529 C36.0117647,30.6823529 37.7411765,20.7435294 37.7411765,16.4705882 C37.7411765,7.57176471 31.1082353,2.25882353 20,2.25882353 L20,2.25882353 Z" id="Fill-59"></path>
                </g>
            </g>
        </g>
    </g>
</svg>