<?xml version="1.0" encoding="UTF-8" standalone="no"?>
<svg width="90px" height="28px" viewBox="0 0 90 28" version="1.1" xmlns="http://www.w3.org/2000/svg" xmlns:xlink="http://www.w3.org/1999/xlink" xmlns:sketch="http://www.bohemiancoding.com/sketch/ns">
    <!-- Generator: bin/sketchtool 1.4 (305) - http://www.bohemiancoding.com/sketch -->
    <title>Guide</title>
    <desc>Created with bin/sketchtool.</desc>
    <defs></defs>
    <g id="Golovna" stroke="none" stroke-width="1" fill="none" fill-rule="evenodd" sketch:type="MSPage">
        <g id="Desktop-1280" sketch:type="MSArtboardGroup" transform="translate(-39.000000, -11.000000)" fill="#FFFFFF">
            <g id="heder" sketch:type="MSLayerGroup" transform="translate(-61.000000, -1.000000)">
                <g id="menu" transform="translate(61.000000, 1.000000)" sketch:type="MSShapeGroup">
                    <g id="Guide" transform="translate(39.000000, 10.000000)">
                        <path d="M19.6007773,16.0503186 C19.3285443,15.8558664 19.0563113,15.6614142 18.7451879,15.5058525 C18.4340644,15.3891812 18.2007218,15.3114004 17.9673792,15.3114004 C17.7340366,15.3891812 17.4618036,15.4669621 17.1506802,15.544743 C16.8006663,15.6614142 16.5284333,15.7391951 16.3339811,15.7780855 C16.0228577,15.8558664 15.6339534,15.9725377 15.1672682,16.089209 C14.700583,16.2447707 14.1950074,16.361442 13.6894318,16.4392229 C13.1449658,16.5947846 12.6393901,16.6725655 12.172705,16.7503463 C11.6671294,16.8670176 11.2393346,16.905908 10.9282112,16.905908 L9.60593651,16.905908 C9.48926522,16.905908 9.37259393,16.9836889 9.2170322,17.0614698 C9.06147048,17.1392506 8.90590875,17.2559219 8.75034703,17.3725932 C8.5947853,17.5281549 8.43922358,17.6448262 8.36144271,17.7614975 C8.24477142,17.9170593 8.20588099,18.072621 8.20588099,18.1504018 C8.20588099,18.6948679 8.40033315,19.0837722 8.82812789,19.3560052 C9.2170322,19.6671287 9.72260781,19.7838 10.3059643,19.7838 C10.461526,19.7838 10.6559782,19.7838 10.8893207,19.7449095 C11.0448825,19.7449095 11.2393346,19.7060191 11.4726772,19.6282382 C11.9393624,19.5504574 12.444938,19.4337861 12.989404,19.2782244 C13.3783083,19.2004435 13.7672127,19.1226626 14.156117,19.0059913 C14.5061308,18.9282105 14.8561447,18.8504296 15.2061586,18.7337583 C15.2839395,18.8115392 15.4395012,18.8504296 15.6339534,18.9282105 C15.7895151,19.0059913 15.4783916,18.9084883 15.4006108,19.0640501 C15.3228299,19.2196118 15.245049,19.3751735 15.2061586,19.4918448 C14.8950352,20.1140917 14.5450213,20.775229 14.0783361,21.4363664 C13.6116509,22.0975037 13.0671849,22.6808602 12.4838284,23.2253262 C11.8615815,23.7697922 11.2393346,24.2364774 10.5393069,24.5476009 C9.8392791,24.9365052 9.10036091,25.0920669 8.36144271,25.0920669 C6.7280446,25.0920669 5.52244123,24.5864913 4.74463261,23.4975592 C3.92793355,22.4475176 3.53902924,20.9696812 3.53902924,19.0251596 C3.53902924,17.0806381 3.69459097,15.2527878 4.00571442,13.5027184 C4.31683787,11.7915394 4.8613039,10.04147 5.63911253,8.25251018 C5.83356468,7.78582501 6.14468813,7.2802494 6.53359245,6.73578336 C6.88360633,6.19131733 7.31140107,5.64685129 7.81697668,5.18016611 C8.28366185,4.71348094 8.82812789,4.32457663 9.45037479,4.01345318 C10.0337313,3.70232973 10.6559782,3.50787757 11.3171155,3.50787757 C12.2504858,3.50787757 12.989404,3.74122016 13.5338701,4.13012447 C14.0394457,4.55791922 14.4672404,4.94682353 14.8561447,5.33572784 C15.0505969,5.56907043 15.245049,5.80241301 15.4395012,6.0357556 C15.5950629,6.30798862 15.8284055,6.54133121 16.0617481,6.73578336 C16.3728715,7.12468768 16.8006663,7.31913983 17.3451323,7.31913983 C17.7340366,7.31913983 18.122941,7.20246854 18.4340644,6.93023552 C18.7062974,6.69689293 18.8618591,6.34687905 18.8618591,5.91908431 C18.8618591,5.76352258 18.8229687,5.64685129 18.7451879,5.49128956 C18.667407,5.33572784 18.6285166,5.21905655 18.5507357,5.06349482 C17.7729271,3.81900102 16.7228854,2.80784981 15.4006108,2.06893162 C14.0394457,1.36890385 12.6393901,0.979999542 11.1615538,0.979999542 C9.95595039,0.979999542 8.86701832,1.29112299 7.85586711,1.83558903 C6.8447159,2.45783593 5.95023598,3.23564455 5.13353692,4.1690149 C4.27794744,5.10238525 3.57791967,6.19131733 2.95567277,7.35803026 C2.29453544,8.60252406 1.75006941,9.84701786 1.32227466,11.0915117 C0.855589487,12.3360055 0.544466037,13.5804993 0.31112345,14.7472122 C0.0777808625,15.991706 0,17.0417476 0,17.9362276 C0,19.3362831 0.0777808625,20.6974482 0.31112345,21.9808324 C0.544466037,23.2642166 1.05004164,24.3920391 1.8667407,25.3254095 C2.4889876,26.1032181 3.38346752,26.725465 4.47239959,27.1921502 C5.56133167,27.6588354 6.88360633,27.892178 8.43922358,27.892178 C9.2170322,27.892178 10.0337313,27.7366162 10.8893207,27.3477119 C11.7060198,27.0365885 12.4838284,26.5310129 13.261637,25.908766 C14.0005552,25.2865191 14.700583,24.5864913 15.3617203,23.7309018 C15.9839672,22.9142028 16.5284333,22.0197228 16.9951184,21.0474621 C16.9173376,21.5919281 16.8784472,22.1752846 16.8784472,22.8364219 C16.8006663,23.5364497 16.8006663,24.197587 16.8006663,24.7809435 C16.8006663,25.5976425 16.8395567,26.2587798 16.9951184,26.7643554 C17.1117897,27.3088215 17.2673515,27.6977258 17.5006941,27.9699588 C17.6562558,28.2810823 17.8895984,28.4755344 18.122941,28.5922057 C18.3562835,28.708877 18.5507357,28.7866579 18.7840783,28.7866579 C19.211873,28.7866579 19.5618869,28.6699866 19.8730104,28.436644 C20.1452434,28.164411 20.3008051,27.8532875 20.3008051,27.3866023 C20.3008051,27.3088215 20.2619147,27.1921502 20.2619147,27.0365885 C20.2230242,26.9199172 20.1841338,26.7643554 20.1452434,26.5699033 C20.0674625,26.4143416 20.0285721,26.2198894 19.9896817,26.0254373 C19.9507912,25.8698755 19.9119008,25.7143138 19.8730104,25.5587521 C19.7174486,24.9365052 19.6007773,24.2364774 19.5229965,23.5364497 C19.4452156,22.8364219 19.4452156,22.1752846 19.4452156,21.4752568 C19.4452156,21.0474621 19.4452156,20.6196673 19.5229965,20.1529821 C19.5618869,19.7251874 19.7563391,19.3948956 19.7563391,19.1615531 C19.7563391,19.0837722 19.7952295,18.9282105 19.9119008,18.6948679 C20.0674625,18.5004157 19.8730104,16.2836611 19.6007773,16.0503186 Z M39.5126781,27.2310406 C39.5126781,27.1921502 39.4737877,27.0365885 39.3960068,26.8032459 C39.318226,26.6087937 39.2404451,26.4921224 39.2404451,26.4143416 C39.0848834,26.0643277 38.9682121,25.6754234 38.8904312,25.2865191 C38.7737599,24.8976147 38.6959791,24.46982 38.6570886,23.9642444 C38.5793078,23.4975592 38.5404173,22.9142028 38.5404173,22.2530654 C38.5015269,21.6308185 38.5015269,20.8530099 38.5015269,19.95853 L38.5015269,19.2585022 C38.5015269,18.9473788 38.5404173,18.5584745 38.5793078,18.1695701 C38.5793078,17.7806658 38.5793078,17.3917615 38.6181982,17.0028572 C38.6181982,16.6139529 38.6570886,16.263939 38.6959791,16.0305964 C38.7348695,15.6028017 38.7737599,15.2138974 38.8126504,14.8638835 C38.8126504,14.55276 38.8904312,14.1638557 38.9682121,13.736061 C39.0071025,13.463828 39.045993,13.1915949 39.1237738,12.9582524 C39.1237738,12.7249098 39.1626642,12.4915672 39.1626642,12.297115 C39.1626642,12.1415533 39.045993,11.9859916 38.8904312,11.752649 C38.6570886,11.5581968 38.4237461,11.3637447 38.1904035,11.208183 C37.9570609,11.1304021 37.7237183,11.0137308 37.4125948,10.9359499 C37.1014714,10.8581691 36.9459097,10.8192786 36.8681288,10.8192786 C36.7125671,10.8192786 36.5570054,10.8581691 36.4014436,10.8970595 C36.168101,10.9748404 36.0125393,11.0526212 35.9347585,11.208183 C35.7791967,11.4026351 35.7014159,11.6359777 35.623635,11.9471011 C35.5458541,12.2582246 35.5458541,12.8026906 35.5458541,13.5804993 L35.5458541,14.280527 C35.5458541,14.7083218 35.5847446,15.2138974 35.5847446,15.7583634 C35.5847446,16.3806103 35.5458541,17.0417476 35.5458541,17.7417754 C35.5458541,18.4806936 35.5069637,19.1807214 35.5069637,19.8807491 C35.4680733,20.502996 35.351402,21.1641333 35.1569498,21.8252707 C34.9624977,22.5252984 34.6902647,23.1864358 34.3791412,23.7697922 C33.9902369,24.3531487 33.5624421,24.8198339 33.0568665,25.1698478 C32.5124005,25.5587521 31.8901536,25.7532042 31.1901258,25.7532042 C30.6456598,25.7532042 30.1789746,25.6365329 29.7900703,25.3642999 C29.3233851,25.1309573 28.9733713,24.7809435 28.7011382,24.3142583 C28.3900148,23.8864635 28.1955626,23.3808879 28.0400009,22.758641 C27.8844392,22.1752846 27.8066583,21.5530377 27.8066583,20.8530099 C27.8066583,20.7363386 27.8066583,20.4641056 27.8455488,19.9974204 L27.8455488,18.5584745 L27.8455488,17.0806381 C27.8455488,16.6139529 27.8844392,16.3028294 27.8844392,16.1472677 C27.8844392,15.9139251 27.8844392,15.5639113 27.9622201,15.0583356 C28.0011105,14.5916505 28.0400009,14.0860749 28.1177818,13.6193897 C28.1566722,13.4249375 28.1955626,13.1915949 28.2344531,12.9582524 C28.2344531,12.7249098 28.2733435,12.4137863 28.2733435,12.024882 C28.2733435,11.7137586 28.1177818,11.4026351 27.8066583,11.0915117 C27.4955349,10.7803882 27.0677401,10.6248265 26.5621645,10.6248265 C26.0565889,10.6248265 25.3565612,10.9359499 24.5009717,11.5193064 C24.5398621,11.8304299 24.5787525,12.2193342 24.6565334,12.6860193 C24.7343143,13.1915949 24.7732047,13.6971706 24.7732047,14.1638557 C24.7732047,14.4749792 24.7343143,14.9416644 24.7343143,15.5250208 C24.7343143,16.1472677 24.6954238,16.7306242 24.6954238,17.3528711 C24.6565334,17.975118 24.6565334,18.5584745 24.6565334,19.0251596 C24.617643,19.5696257 24.617643,19.8807491 24.617643,20.0363108 C24.617643,21.2808046 24.7343143,22.4086271 24.9676568,23.3808879 C25.162109,24.3531487 25.5121229,25.1698478 26.0176985,25.8309851 C26.4843837,26.5310129 27.145521,27.0365885 28.0011105,27.3477119 C28.7789191,27.7366162 29.7900703,27.892178 31.0345641,27.892178 C31.6179206,27.892178 32.3568388,27.7366162 33.2124283,27.4254928 C34.0680178,27.1143693 34.8069359,26.5699033 35.4680733,25.7143138 C35.7403063,26.8032459 36.0903202,27.5810545 36.4792245,27.9699588 C36.8681288,28.3977536 37.334814,28.6310961 37.87928,28.6310961 C38.3070748,28.6310961 38.6959791,28.4755344 39.045993,28.2421918 C39.3571164,28.0088492 39.5126781,27.6977258 39.5126781,27.2310406 L39.5126781,27.2310406 Z M47.0963122,7.08579725 C47.7185591,7.08579725 48.2241347,6.93023552 48.613039,6.58022164 C49.0019433,6.26909819 49.1963955,5.80241301 49.1963955,5.18016611 C49.1963955,4.44124792 48.9241625,3.85789145 48.3796964,3.39120628 C47.79634,3.00230197 47.1352026,2.76895938 46.357394,2.76895938 C45.7351471,2.76895938 45.2295715,2.96341153 44.8017768,3.31342542 C44.373982,3.6634393 44.1795299,4.13012447 44.1795299,4.71348094 C44.1795299,5.06349482 44.2573107,5.37461827 44.4128725,5.64685129 C44.5684342,5.95797474 44.8017768,6.19131733 45.1129002,6.42465991 C45.3462428,6.6580025 45.6573663,6.81356423 46.0462706,6.89134509 C46.357394,7.04690681 46.7074079,7.08579725 47.0963122,7.08579725 L47.0963122,7.08579725 Z M48.1463539,13.3471567 C48.1463539,13.2304854 48.1852443,13.1138141 48.2241347,13.0360332 L48.2241347,12.6860193 C48.2241347,12.5304576 48.1463539,12.3748959 47.9907921,12.2193342 C47.8352304,12.0637724 47.6407783,11.9471011 47.4463261,11.7915394 C47.2129835,11.6359777 46.9796409,11.5193064 46.7462983,11.4415255 C46.4740653,11.3637447 46.2407227,11.3248542 46.0462706,11.3248542 C45.6573663,11.3248542 45.3462428,11.3637447 45.1906811,11.4415255 C45.0351194,11.5193064 44.8795576,11.6748681 44.8017768,11.8693203 C44.646215,12.1804437 44.5684342,12.569348 44.5684342,12.9971428 L44.5684342,14.280527 L44.5684342,15.3694591 L44.5684342,17.4695424 C44.5295438,18.2862414 44.5295438,19.1418309 44.5295438,20.0363108 C44.5295438,20.9307908 44.4906533,21.7863802 44.4906533,22.5641889 L44.4906533,24.7031626 L44.4906533,25.908766 C44.4906533,26.1421085 44.5295438,26.4143416 44.646215,26.6476842 C44.7628863,26.9588076 44.9184481,27.1921502 45.1129002,27.4254928 C45.3073524,27.6588354 45.540695,27.8143971 45.7740376,27.9699588 C46.0073801,28.1255205 46.2018323,28.164411 46.4351749,28.164411 C46.6685175,28.164411 46.9018601,28.1255205 47.1352026,27.9699588 C47.3296548,27.8143971 47.524107,27.6588354 47.6796687,27.4254928 C47.79634,27.2310406 47.9130113,26.997698 47.9907921,26.725465 C48.068573,26.4921224 48.1074634,26.2976703 48.1074634,26.0643277 C47.9519017,25.7143138 47.8741208,25.3254095 47.8352304,24.9365052 C47.7574495,24.5864913 47.7574495,24.2753678 47.7574495,23.9642444 L47.7574495,21.7474898 L47.7574495,20.1140917 C47.7574495,19.5307352 47.79634,18.9473788 47.79634,18.4029127 C47.79634,17.8584467 47.79634,17.3139807 47.8352304,16.8472955 L47.8352304,15.7583634 C47.8352304,15.3305687 47.9130113,14.9027739 47.9907921,14.5138696 C48.0296826,14.1249653 48.068573,13.736061 48.1463539,13.3471567 L48.1463539,13.3471567 Z M70.2361188,2.9245211 C70.2361188,2.84674024 70.1583379,2.73006895 70.0416666,2.57450722 C69.8861049,2.4189455 69.6527623,2.26338377 69.4194197,2.10782205 C69.1860772,1.95226032 68.9138441,1.83558903 68.6416111,1.6800273 C68.3304877,1.60224644 68.0193642,1.52446558 67.7082408,1.52446558 C67.2026652,1.52446558 66.8526513,1.71891774 66.6581991,2.06893162 C66.5026374,2.3022742 66.3859661,2.9245211 66.3081852,3.89678188 C66.2304044,4.9079331 66.1526235,5.99686517 66.1526235,7.16357811 C66.1137331,7.39692069 66.0748427,7.98027716 66.0748427,8.91364751 L66.0748427,12.4137863 C65.297034,11.6748681 64.5192254,11.1692925 63.7025264,10.8581691 C62.8469369,10.6248265 61.9524569,10.4692648 60.9801962,10.4692648 C59.6190311,10.4692648 58.4523181,10.8581691 57.5189478,11.5970873 C56.5855774,12.3748959 55.8077688,13.2693758 55.1855219,14.3583079 C54.563275,15.4861304 54.1354803,16.6528433 53.8632473,17.8973371 C53.5910142,19.1418309 53.4743429,20.2696534 53.4743429,21.2030238 C53.4743429,22.2919559 53.6299047,23.2253262 53.9410281,24.0809157 C54.2521516,24.9753956 54.7188367,25.7532042 55.3410836,26.3754511 C55.9633305,27.0365885 56.7800296,27.5421641 57.7522904,27.892178 C58.6856607,28.2033014 59.8134832,28.3977536 61.0968675,28.3977536 C61.9135665,28.3977536 62.769156,28.164411 63.7025264,27.6977258 C64.5970063,27.2310406 65.3359245,26.5699033 65.8803905,25.7143138 C65.8803905,26.180999 65.9192809,26.6476842 65.9970618,27.0365885 C66.0359522,27.4643832 66.1137331,27.8143971 66.2692948,28.0866301 C66.3859661,28.3588631 66.5804183,28.5922057 66.8526513,28.7477674 C67.1248843,28.9033292 67.4748982,29.0200005 67.9415834,29.0200005 C68.2915972,29.0200005 68.6416111,28.9033292 69.0305154,28.7477674 C69.4194197,28.5922057 69.6138719,28.3588631 69.6138719,28.1255205 C69.6138719,28.0088492 69.5749815,27.892178 69.5749815,27.8143971 C69.536091,27.7755067 69.536091,27.7366162 69.536091,27.6588354 C69.536091,27.6199449 69.4972006,27.5810545 69.4972006,27.5032736 C69.4194197,27.3866023 69.4194197,27.2699311 69.4194197,27.1532598 C69.3805293,27.0754789 69.3416389,26.9588076 69.3416389,26.8032459 C69.263858,26.3365607 69.2249676,25.8309851 69.2249676,25.3254095 C69.1860772,24.8587243 69.1860772,24.3531487 69.1860772,23.8475731 C69.1860772,21.7863802 69.2249676,19.7251874 69.3416389,17.6639945 C69.4194197,15.6416921 69.4583102,13.5804993 69.4583102,11.480416 C69.4583102,10.5470456 69.4972006,9.61367527 69.5749815,8.68030493 C69.6527623,7.74693458 69.7305432,6.85245466 69.8083241,5.91908431 C69.8083241,5.64685129 69.8472145,5.37461827 69.9249953,5.06349482 C69.9638858,4.7912618 70.0027762,4.51902878 70.0805571,4.20790533 C70.0805571,4.13012447 70.1194475,4.01345318 70.1194475,3.89678188 C70.1194475,3.81900102 70.1583379,3.70232973 70.1972284,3.58565843 C70.1972284,3.46898714 70.2361188,3.35231585 70.2361188,3.23564455 L70.2361188,2.9245211 L70.2361188,2.9245211 Z M65.9581714,18.2084606 C65.9581714,18.9473788 65.8803905,19.7640778 65.7637192,20.6974482 C65.6081575,21.6308185 65.3359245,22.5252984 64.9859106,23.3419975 C64.5970063,24.197587 64.0525402,24.8976147 63.3914029,25.4420808 C62.6913751,26.0254373 61.8357857,26.2976703 60.785744,26.2976703 C59.969045,26.2976703 59.3079076,26.1421085 58.802332,25.8309851 C58.257866,25.5198616 57.8689617,25.1309573 57.5967286,24.6253817 C57.2856052,24.1586966 57.0522626,23.6142305 56.9744817,23.030874 C56.81892,22.486408 56.7800296,21.941942 56.7800296,21.3974759 C56.7800296,20.775229 56.8578105,19.95853 57.0522626,19.0251596 C57.2078243,18.0917893 57.5189478,17.1973094 57.9078521,16.3417199 C58.2967564,15.4861304 58.8412224,14.7472122 59.5412502,14.1249653 C60.1634971,13.5416088 60.9801962,13.2304854 61.9524569,13.2304854 C62.7302656,13.2304854 63.4302933,13.4249375 63.9747594,13.736061 C64.480335,14.0860749 64.8692393,14.5138696 65.1803627,14.9805548 C65.4525958,15.4861304 65.6470479,16.0305964 65.7637192,16.6139529 C65.8803905,17.1973094 65.9581714,17.7417754 65.9581714,18.2084606 L65.9581714,18.2084606 Z M89.9924579,25.0531765 C89.9924579,24.8976147 89.8757866,24.7031626 89.6813344,24.46982 C89.4479918,24.2364774 89.1757588,24.1198061 88.8646354,24.1198061 C88.475731,24.1198061 88.1257172,24.2364774 87.8145937,24.4309296 C87.4645798,24.6642722 87.114566,24.8976147 86.7256616,25.1309573 C86.2978669,25.3642999 85.8700722,25.5976425 85.403387,25.7920947 C84.9367018,26.0254373 84.4311262,26.180999 83.964441,26.2976703 C83.4588654,26.453232 82.9532898,26.4921224 82.4866046,26.4921224 C81.6310151,26.4921224 80.8532065,26.3365607 80.1920692,26.0254373 C79.4920414,25.7532042 78.8697945,25.3642999 78.4031094,24.8198339 C77.8975338,24.3142583 77.5475199,23.6920114 77.3530677,22.9142028 C77.1197251,22.1363941 77.0419443,21.3585855 77.0419443,20.5418865 C77.6641912,20.9307908 78.4031094,21.2030238 79.2586988,21.4363664 C80.1142883,21.669709 80.9309874,21.7863802 81.708796,21.7863802 C82.7977281,21.7863802 83.8477697,21.669709 84.8589209,21.3585855 C85.8700722,21.0474621 86.7256616,20.6585577 87.5034703,20.1529821 C88.2423885,19.686297 88.8257449,19.1029405 89.2924301,18.4418032 C89.7591153,17.8195563 89.9924579,17.1195285 89.9924579,16.3806103 C89.9924579,15.3694591 89.6813344,14.4360887 89.0590875,13.6582801 C88.3979502,12.9193619 87.5812511,12.297115 86.6089903,11.752649 C85.8311817,11.3637447 84.8978114,11.0526212 83.8866602,10.8192786 C82.8366185,10.6248265 81.8643577,10.5081552 80.9698778,10.5081552 C80.0753979,10.5081552 79.2198084,10.8192786 78.3642189,11.4415255 C77.5086294,12.0637724 76.7308208,12.8804715 76.0696835,13.8527323 C75.3696557,14.8638835 74.7862993,15.991706 74.3585045,17.2361998 C73.9307098,18.4806936 73.7362576,19.7640778 73.7362576,21.0085716 C73.7362576,21.941942 73.8918193,22.8753123 74.2029428,23.7697922 C74.5140662,24.7031626 75.0196418,25.4809712 75.6807792,26.180999 C76.3419165,26.8810267 77.197506,27.4643832 78.2475476,27.892178 C79.2586988,28.2810823 80.4643022,28.5144249 81.9032482,28.5144249 C82.7588377,28.5144249 83.6533176,28.436644 84.6255784,28.2810823 C85.5589487,28.1255205 86.4145382,27.8532875 87.1923468,27.5421641 C87.9701554,27.2310406 88.6701832,26.8810267 89.2146492,26.453232 C89.7202248,26.0643277 89.9924579,25.5976425 89.9924579,25.0531765 L89.9924579,25.0531765 Z M87.1923468,16.4972816 C87.1923468,16.9639668 86.9978947,17.3917615 86.6867712,17.7806658 C86.3367573,18.1695701 85.9089626,18.519584 85.403387,18.791817 C84.8589209,19.0640501 84.236674,19.2585022 83.6144271,19.4140639 C82.9532898,19.5696257 82.3310429,19.6474065 81.708796,19.6474065 C80.6198639,19.6474065 79.6864936,19.4918448 78.9475754,19.1029405 C78.1697668,18.791817 77.7030816,18.2862414 77.469739,17.6251041 C77.6253007,17.0028572 77.8586433,16.4195007 78.1697668,15.8361443 C78.4808902,15.2916782 78.8309041,14.7861026 79.2586988,14.3583079 C79.6476032,13.9305131 80.0753979,13.5804993 80.5809735,13.3082662 C81.0476587,13.0749237 81.5532343,12.9193619 82.0977003,12.9193619 C82.6032759,12.9193619 83.1866324,12.9971428 83.8477697,13.1527045 C84.5089071,13.3082662 85.0922635,13.5416088 85.5589487,13.8138418 C86.0256339,14.1249653 86.4145382,14.4749792 86.7256616,14.9027739 C87.0367851,15.3694591 87.1923468,15.9139251 87.1923468,16.4972816 L87.1923468,16.4972816 Z"></path>
                    </g>
                </g>
            </g>
        </g>
    </g>
</svg>