<?xml version="1.0" encoding="UTF-8" standalone="no"?>
<svg width="18px" height="25px" viewBox="0 0 18 25" version="1.1" xmlns="http://www.w3.org/2000/svg" xmlns:xlink="http://www.w3.org/1999/xlink" xmlns:sketch="http://www.bohemiancoding.com/sketch/ns">
    <!-- Generator: bin/sketchtool 1.4 (305) - http://www.bohemiancoding.com/sketch -->
    <title>location</title>
    <desc>Created with bin/sketchtool.</desc>
    <defs></defs>
    <g id="Golovna" stroke="none" stroke-width="1" fill="none" fill-rule="evenodd" sketch:type="MSPage">
        <g id="Desktop-1280" sketch:type="MSArtboardGroup" transform="translate(-865.000000, -13.000000)" fill="#FFFFFF">
            <g id="heder" sketch:type="MSLayerGroup" transform="translate(-61.000000, -1.000000)">
                <g id="menu" transform="translate(61.000000, 1.000000)" sketch:type="MSShapeGroup">
                    <g id="location-+-Мапа" transform="translate(865.000000, 13.000000)">
                        <g id="location">
                            <g>
                                <path d="M8.73648649,24.5668919 L8.25945946,24.0101351 C7.9222973,23.6168919 0,14.3101351 0,8.73648649 C0,3.91959459 3.91891892,0 8.73648649,0 C13.5540541,0 17.472973,3.91959459 17.472973,8.73648649 C17.472973,14.3101351 9.55067568,23.6168919 9.21351351,24.0101351 L8.73648649,24.5668919 L8.73648649,24.5668919 Z M8.73648649,1.25675676 C4.61148649,1.25675676 1.25675676,4.61216216 1.25675676,8.73648649 C1.25675676,13.1101351 7.01824324,20.5081081 8.73648649,22.6168919 C10.4540541,20.5081081 16.2162162,13.1074324 16.2162162,8.73648649 C16.2162162,4.61216216 12.8614865,1.25675676 8.73648649,1.25675676 L8.73648649,1.25675676 Z" id="Fill-55"></path>
                                <path d="M8.73648649,12.0675676 C6.89932432,12.0675676 5.40540541,10.572973 5.40540541,8.73648649 C5.40540541,6.9 6.89932432,5.40540541 8.73648649,5.40540541 C10.5736486,5.40540541 12.0675676,6.9 12.0675676,8.73648649 C12.0675676,10.572973 10.5736486,12.0675676 8.73648649,12.0675676 L8.73648649,12.0675676 Z M8.73648649,6.66216216 C7.59324324,6.66216216 6.66216216,7.59256757 6.66216216,8.73648649 C6.66216216,9.88040541 7.59324324,10.8108108 8.73648649,10.8108108 C9.87972973,10.8108108 10.8108108,9.88040541 10.8108108,8.73648649 C10.8108108,7.59256757 9.87972973,6.66216216 8.73648649,6.66216216 L8.73648649,6.66216216 Z" id="Fill-56"></path>
                            </g>
                        </g>
                    </g>
                </g>
            </g>
        </g>
    </g>
</svg>