<?xml version="1.0" encoding="UTF-8" standalone="no"?>
<svg width="46px" height="40px" viewBox="0 0 46 40" version="1.1" xmlns="http://www.w3.org/2000/svg" xmlns:xlink="http://www.w3.org/1999/xlink" xmlns:sketch="http://www.bohemiancoding.com/sketch/ns">
    <!-- Generator: bin/sketchtool 1.4 (305) - http://www.bohemiancoding.com/sketch -->
    <title>map</title>
    <desc>Created with bin/sketchtool.</desc>
    <defs></defs>
    <g id="Golovna" stroke="none" stroke-width="1" fill="none" fill-rule="evenodd" sketch:type="MSPage">
        <g id="menu" sketch:type="MSArtboardGroup" transform="translate(-174.000000, -70.000000)">
            <rect id="Rectangle-82" fill="#000000" sketch:type="MSShapeGroup" x="0" y="0" width="1280" height="382"></rect>
            <g id="menu_open" sketch:type="MSLayerGroup" transform="translate(0.000000, -1.000000)">
                <path d="M0,51 L146.648438,51 L146.648438,0.39453125 L267.332031,0.39453125 L267.332031,51 L1280,51 L1280,378 L0,378 L0,51 Z" id="Rectangle-61" fill="#FFFFFF" sketch:type="MSShapeGroup"></path>
                <g id="map" transform="translate(174.000000, 71.000000)" fill="#0A0B09" sketch:type="MSShapeGroup">
                    <path d="M27.6,11.5384615 C26.3319333,11.5384615 25.3,10.5030769 25.3,9.23076923 C25.3,7.95846154 26.3319333,6.92307692 27.6,6.92307692 C28.8719,6.92307692 29.9,7.95846154 29.9,9.23076923 C29.9,10.5030769 28.8696,11.5384615 27.6,11.5384615 L27.6,11.5384615 Z M27.6,5.38461538 C25.4878333,5.38461538 23.7666667,7.10923077 23.7666667,9.23076923 C23.7666667,11.3523077 25.4878333,13.0769231 27.6,13.0769231 C29.7144667,13.0769231 31.4333333,11.3523077 31.4333333,9.23076923 C31.4333333,7.10923077 29.716,5.38461538 27.6,5.38461538 L27.6,5.38461538 Z M44.4666667,38.2446154 L30.6666667,34.7646154 L30.6666667,21.6461538 C32.3679,19.9876923 34.4961667,17.5146154 35.7949,14.56 L44.4666667,16.7538462 L44.4666667,38.2446154 L44.4666667,38.2446154 Z M27.6,22.3076923 C25.8719333,20.9123077 19.7646667,15.5484615 19.7646667,9.30692308 C19.7646667,4.91153846 23.2077667,1.53846154 27.6,1.53846154 C31.9960667,1.53846154 35.4407,4.91307692 35.4407,9.30692308 C35.4407,15.5407692 29.3280667,20.9138462 27.6,22.3076923 L27.6,22.3076923 Z M29.1333333,34.8061538 L15.3333333,38.2138462 L15.3333333,16.7315385 L19.9095667,15.6053846 C22.4196333,20.4107692 26.8900667,23.7138462 27.1507333,23.9038462 C27.2856667,24.0023077 27.4443667,24.0507692 27.6,24.0507692 C27.7587,24.0507692 27.9174,24.0023077 28.0523333,23.9038462 C28.1251667,23.8507692 28.5338,23.5484615 29.1333333,23.0407692 L29.1333333,34.8061538 L29.1333333,34.8061538 Z M13.8,38.2584615 L1.53333333,34.8023077 L1.53333333,13.3230769 L13.8,16.7676923 L13.8,38.2584615 L13.8,38.2584615 Z M45.4188667,15.4076923 L36.3469,13.1123077 C36.7379,11.9030769 36.9740333,10.6292308 36.9740333,9.30846154 C36.9740333,4.05 32.8562667,0 27.6,0 C22.3483333,0 18.2313333,4.05 18.2313333,9.30846154 C18.2313333,11.0253846 18.6269333,12.6646154 19.2479333,14.1838462 L14.4762,15.36 L0.974433333,11.5676923 C0.742133333,11.5015385 0.495266667,11.5492308 0.305133333,11.6953846 C0.113466667,11.8384615 0,12.0676923 0,12.3076923 L0,35.3846154 C0,35.7276923 0.228466667,36.0292308 0.559666667,36.1246154 L14.2109333,39.9707692 C14.3090667,39.9992308 14.4087333,40 14.5076333,39.9876923 C14.5283333,39.9892308 14.5459667,40 14.5666667,40 C14.7008333,40 14.8196667,39.9561538 14.9300667,39.8953846 L29.9835667,36.1753846 L45.0478,39.9769231 C45.1076,39.9915385 45.1704667,40 45.2333333,40 C45.4043,40 45.5691333,39.9438462 45.7040667,39.8384615 C45.8888333,39.6915385 46,39.4661538 46,39.2307692 L46,16.1538462 C46,15.8015385 45.7608,15.4938462 45.4188667,15.4076923 L45.4188667,15.4076923 Z"></path>
                </g>
            </g>
        </g>
    </g>
</svg>