<?xml version="1.0" encoding="UTF-8" standalone="no"?>
<svg width="40px" height="29px" viewBox="0 0 40 29" version="1.1" xmlns="http://www.w3.org/2000/svg" xmlns:xlink="http://www.w3.org/1999/xlink" xmlns:sketch="http://www.bohemiancoding.com/sketch/ns">
    <!-- Generator: bin/sketchtool 1.4 (305) - http://www.bohemiancoding.com/sketch -->
    <title>Platter 2</title>
    <desc>Created with bin/sketchtool.</desc>
    <defs></defs>
    <g id="Golovna" stroke="none" stroke-width="1" fill="none" fill-rule="evenodd" sketch:type="MSPage">
        <g id="menu" sketch:type="MSArtboardGroup" transform="translate(-446.000000, -78.000000)">
            <rect id="Rectangle-82" fill="#000000" sketch:type="MSShapeGroup" x="0" y="0" width="1280" height="382"></rect>
            <g id="menu_open" sketch:type="MSLayerGroup" transform="translate(0.000000, -1.000000)">
                <path d="M0,51 L146.648438,51 L146.648438,0.39453125 L267.332031,0.39453125 L267.332031,51 L1280,51 L1280,378 L0,378 L0,51 Z" id="Rectangle-61" fill="#FFFFFF" sketch:type="MSShapeGroup"></path>
                <g id="Platter-2" transform="translate(446.000000, 79.000000)" fill="#000000" sketch:type="MSShapeGroup">
                    <path d="M23.0656,4.9824 C23.3744,4.48 23.6032,3.92 23.6032,3.2848 C23.6032,1.472 22.1312,0 20.3216,0 C18.5056,0 17.0336,1.472 17.0336,3.2848 C17.0336,3.9184 17.2624,4.4784 17.5712,4.9824 C7.6656,6.3296 0,14.8272 0,25.0992 L0,28.6768 C0,29.1744 0.4032,29.576 0.8992,29.576 L39.736,29.576 C40.2336,29.576 40.6352,29.1728 40.6352,28.6768 L40.6352,25.0992 C40.6368,14.8272 32.9712,6.3296 23.0656,4.9824 L23.0656,4.9824 Z M20.3216,1.8016 C21.144,1.8016 21.8096,2.4672 21.8096,3.2864 C21.8096,4.1056 21.144,4.7712 20.3216,4.7712 C19.5024,4.7712 18.8336,4.1056 18.8336,3.2864 C18.8336,2.4672 19.5024,1.8016 20.3216,1.8016 L20.3216,1.8016 Z M20.3216,6.5728 C30.2272,6.5728 38.344,14.4016 38.816,24.1984 L1.8224,24.1984 C2.2944,14.4016 10.4096,6.5728 20.3216,6.5728 L20.3216,6.5728 Z M38.8368,27.7728 L1.8,27.7728 L1.8,25.9984 L38.8368,25.9984 L38.8368,27.7728 Z M20.2336,9.6336 C16.1392,9.6336 12.2656,11.2272 9.352,14.1248 C8.9952,14.4752 8.9952,15.0432 9.3456,15.4 C9.52,15.5744 9.7488,15.6656 9.9824,15.6656 C10.2144,15.6656 10.4416,15.5776 10.616,15.4032 C13.1904,12.8432 16.6128,11.4368 20.1568,11.4352 C20.704,11.4848 21.1728,11.0752 21.1728,10.5408 C21.1744,10.0416 20.7312,9.6336 20.2336,9.6336 Z"></path>
                </g>
            </g>
        </g>
    </g>
</svg>