<?xml version="1.0" encoding="UTF-8" standalone="no"?>
<svg width="41px" height="40px" viewBox="0 0 41 40" version="1.1" xmlns="http://www.w3.org/2000/svg" xmlns:xlink="http://www.w3.org/1999/xlink" xmlns:sketch="http://www.bohemiancoding.com/sketch/ns">
    <!-- Generator: bin/sketchtool 1.4 (305) - http://www.bohemiancoding.com/sketch -->
    <title>transport</title>
    <desc>Created with bin/sketchtool.</desc>
    <defs></defs>
    <g id="Golovna" stroke="none" stroke-width="1" fill="none" fill-rule="evenodd" sketch:type="MSPage">
        <g id="menu" sketch:type="MSArtboardGroup" transform="translate(-989.000000, -72.000000)">
            <rect id="Rectangle-82" fill="#000000" sketch:type="MSShapeGroup" x="0" y="0" width="1280" height="382"></rect>
            <g id="menu_open" sketch:type="MSLayerGroup" transform="translate(0.000000, -1.000000)">
                <path d="M0,51 L146.648438,51 L146.648438,0.39453125 L267.332031,0.39453125 L267.332031,51 L1280,51 L1280,378 L0,378 L0,51 Z" id="Rectangle-61" fill="#FFFFFF" sketch:type="MSShapeGroup"></path>
                <g id="transport" transform="translate(990.000000, 73.000000)" stroke="#000000" sketch:type="MSShapeGroup">
                    <path d="M9.36717066,32.1502718 L9.36717066,38.8622709 L1.40325846,38.8622709 L1.40325846,31.8400456 L0.0814251078,30.8546933 L0.0814251078,18.6053912 L3.98851697,14.6911528 L8.20948949,4.08881575 L13.4564812,4.08881575 M24.1514093,3.92826383 L29.4535628,4.01625548 L34.6673963,14.6891828 L38.7212503,18.7719296 L38.9185749,30.8858844 L37.6561574,32.0898597 L37.6561574,38.8622719 L29.4535628,38.8622719 L29.4535628,32.2783064 L9.36717066,32.2783066 L9.36717066,32.1502718 M3.08142511,20.1216821 L8.50235722,20.1216821 L8.50235722,25.5426142 L3.08142511,25.5426142 L3.08142511,20.1216821 L3.08142511,20.1216821 Z M30.0195986,20.1216821 L35.0814251,20.1216821 L35.0814251,25.1835086 L30.0195986,25.1835086 L30.0195986,20.1216821 L30.0195986,20.1216821 Z M12.8644262,19.7940959 L26.2394823,19.7940959 L26.2394823,25.8458201 L12.8644262,25.8458201 L12.8644262,19.7940959 L12.8644262,19.7940959 Z" id="Path-94" stroke-width="2"></path>
                    <path d="M4.04203428,13.8204294 L6.52254512,16.1876675 L32.2042868,16.0159524 L34.7764009,14.3877786" id="Path-95" stroke-width="2"></path>
                    <path id="Path-96" d=""></path>
                    <rect id="Rectangle-63" stroke-width="2" x="13.4482759" y="0" width="10.7586207" height="4.70689655"></rect>
                </g>
            </g>
        </g>
    </g>
</svg>